<?xml version="1.0" encoding="utf-8"?>
<!-- Generator: Adobe Illustrator 15.1.0, SVG Export Plug-In . SVG Version: 6.00 Build 0)  -->
<!DOCTYPE svg PUBLIC "-//W3C//DTD SVG 1.1//EN" "http://www.w3.org/Graphics/SVG/1.1/DTD/svg11.dtd">
<svg version="1.1" id="Layer_1" xmlns="http://www.w3.org/2000/svg" xmlns:xlink="http://www.w3.org/1999/xlink" x="0px" y="0px"
	 width="595.279px" height="841.891px" viewBox="0 0 595.279 841.891" enable-background="new 0 0 595.279 841.891"
	 xml:space="preserve">
<path fill="#A2A5A8" d="M330.446,578.414l250.52-250.519c9.543-9.544,14.314-20.678,14.314-33.402s-4.574-23.462-13.719-32.21
	c-9.146-8.748-20.081-13.122-32.806-13.122s-23.461,4.374-32.21,13.122l-219.502,218.31L78.735,262.283
	c-9.544-8.748-20.678-13.122-33.402-13.122s-23.462,4.374-32.21,13.122S0,281.769,0,294.493s4.374,23.858,13.122,33.402
	l250.519,250.519c9.544,9.544,20.678,14.315,33.402,14.315S320.903,587.958,330.446,578.414z"/>
</svg>
