<?xml version="1.0" encoding="utf-8"?>
<!-- Generator: Adobe Illustrator 15.1.0, SVG Export Plug-In . SVG Version: 6.00 Build 0)  -->
<!DOCTYPE svg PUBLIC "-//W3C//DTD SVG 1.1//EN" "http://www.w3.org/Graphics/SVG/1.1/DTD/svg11.dtd">
<svg version="1.1" id="Layer_1" xmlns="http://www.w3.org/2000/svg" xmlns:xlink="http://www.w3.org/1999/xlink" x="0px" y="0px"
	 width="595.279px" height="841.891px" viewBox="0 0 595.279 841.891" enable-background="new 0 0 595.279 841.891"
	 xml:space="preserve">
<g>
	<path fill="#A2A5A8" d="M154.749,346.768c6.628,0.232,14.883-1.628,19.766-3.721c4.767-1.977,13.021-6.278,16.161-12.44
		c0.697-1.279,2.441-3.488,1.395-9.068c-0.813-4.186-3.604-5.697-6.859-5.465c-3.256,0.233-13.138,2.907-17.905,4.302
		c-4.767,1.396-14.649,4.418-18.951,5.349c-4.186,1.046-13.719-0.349-15.23-1.744c-1.279-1.279,1.628,10.231,5.697,14.417
		C146.03,345.721,151.727,346.651,154.749,346.768z"/>
	<path fill="#A2A5A8" d="M105.57,531.746c10.696-6.627,28.484-28.834,34.298-35.577c17.091-19.998,32.09-41.042,43.948-59.063
		c2.325,0.93,21.045,16.276,25.928,19.648s24.184,14.185,28.369,15.929c4.186,1.86,20.229,9.185,20.928,6.743
		c0.813-2.558-2.791-17.323-4.651-18.021c-1.86-0.697-41.041-16.858-46.622-19.532c-4.534-2.209-15.696-6.859-20.928-9.069
		c14.766-22.788,24.066-39.995,25.346-42.553c2.325-4.767,17.905-35.345,18.254-37.205s0.813-8.953,0.465-10.58
		c-0.349-1.744-6.046,1.627-13.836,4.186c-7.789,2.674-22.555,12.208-28.368,13.487c-5.697,1.163-24.067,8.139-33.484,11.278
		c-9.418,3.139-27.09,8.487-34.415,10.464s-13.72,2.093-17.789,3.372c0,0,0.582,5.697,1.628,7.441c1.047,1.744,5,5.93,9.418,7.093
		c4.534,1.162,11.976,0.697,15.347-0.117c3.372-0.813,9.302-3.604,9.999-4.883c0.813-1.279-0.465-5.232,0.93-6.395
		c1.396-1.163,19.185-5.348,25.928-7.441s32.555-10.929,36.042-10.464c-1.162,3.72-21.857,44.878-28.602,57.086
		c-6.743,12.324-45.575,66.271-53.83,75.806c-6.278,7.208-21.51,25.811-26.741,29.88C94.407,533.606,103.942,532.793,105.57,531.746
		z"/>
	<polygon fill="#A2A5A8" points="395.768,423.503 441.344,437.339 420.649,363.51 	"/>
	<path fill="#A2A5A8" d="M534.938,282.821l-34.879-11.045V135.745c-0.116-3.953-3.023-6.627-6.744-6.627
		c-2.906,0-96.965,32.322-104.406,34.996c-25.229,8.487-85.571,28.485-98.825,33.833c-1.163,0.349-3.256,0.93-5.93,1.744
		l-157.308-55.575c-12.208-4.302-24.997,4.767-24.997,17.672v98.244c-27.788,9.301-47.553,15.929-48.6,16.394
		c-1.977,0.698-4.883,1.046-6.511,3.372c-0.93,0.814-1.046,2.326-1.511,3.372v350.541c0,0.349,0.232,0.582,0.232,0.814
		c1.278,2.79,3.487,4.418,6.046,4.418c3.139,0,237.879-78.828,243.111-80.921c0.232,0,0.581-0.232,0.813-0.581l228.113,72.782
		c12.092,3.836,24.416-5.116,24.416-17.789V300.61C547.96,292.472,542.728,285.263,534.938,282.821z M285.199,548.023
		L57.901,623.713V288.402l227.299-75.689V548.023z M487.269,144.117v123.59L299.384,207.83L487.269,144.117z M487.269,527.444
		L487.269,527.444l-23.137-6.976l-11.975-43.832l-69.063-20.928l-14.882,35.693l-33.484-10.115l71.038-174.282l32.555,9.882
		l48.947,176.375v0.116l10.348,37.089v0.116L487.269,527.444z"/>
	<path fill="#A2A5A8" d="M444.484,651.268l-27.788-13.952l-0.349-0.232c-1.511-0.697-2.906-0.697-4.186,0
		c-2.209,1.046-3.255,3.721-2.325,5.93c0.116,0.232,0.232,0.349,0.232,0.581c0.116,0.232,0.232,0.349,0.232,0.581
		c0,0,4.535,9.186,5.813,11.627c1.047,2.093,0.581,4.534-1.162,5.93c-2.791,1.512-5.581,3.488-7.209,4.418
		c-3.488,2.093-7.324,4.186-10.58,5.813c-4.186,2.093-8.604,4.418-12.324,6.046c-3.14,1.278-6.511,2.674-9.185,3.953
		c-3.372,1.278-6.628,2.674-9.767,3.72c-4.767,1.628-9.767,3.372-14.185,4.535c-4.534,1.511-9.417,2.558-13.952,3.487
		c-6.278,1.512-12.673,2.559-18.603,3.372c-7.324,1.046-14.184,1.512-21.509,2.093h-18.719c-3.721,0-22.323-2.325-22.904-2.325
		c-6.859-1.047-13.952-2.325-20.463-3.721c-11.626-2.674-23.369-6.278-34.996-10.58c-8.604-3.14-17.556-7.325-25.462-11.278
		c-3.953-1.86-7.557-3.72-11.277-6.046c-1.279-0.581-7.906-5.464-11.278-5.464c-3.721,0-6.046,2.906-6.046,6.046
		c0,1.86,0.232,3.487,2.675,5.231c14.184,9.418,29.183,16.51,43.6,21.858c7.905,3.139,16.044,6.046,24.415,8.371
		c4.768,1.512,10.231,2.906,15.231,3.953c6.511,1.511,13.37,2.674,19.765,3.721c7.325,1.046,14.999,1.859,22.323,2.558h27.555
		c6.046,0,27.788-3.372,29.765-3.721c3.952-0.581,7.905-1.628,11.858-2.558c10.464-2.559,22.091-6.278,32.787-10.231
		c8.139-3.14,16.626-6.859,24.997-11.278c4.186-2.325,8.952-4.418,12.905-7.092c1.279-0.93,3.023-1.744,4.884-2.674
		c0.349-0.116,0.581-0.232,0.697-0.35c2.441-1.162,5.465,0.466,6.395,2.094c0.814,1.627,6.859,14.067,6.859,14.067
		c1.163,2.441,4.186,3.372,6.628,2.209c1.511-0.697,2.558-2.209,2.674-3.836l5.115-30.811c0.582-0.931,0.582-2.325-0.116-3.604
		C446.809,652.43,445.762,651.616,444.484,651.268z"/>
</g>
</svg>
