<?xml version="1.0" encoding="utf-8"?>
<!-- Generator: Adobe Illustrator 15.1.0, SVG Export Plug-In . SVG Version: 6.00 Build 0)  -->
<!DOCTYPE svg PUBLIC "-//W3C//DTD SVG 1.1//EN" "http://www.w3.org/Graphics/SVG/1.1/DTD/svg11.dtd">
<svg version="1.1" id="Layer_1" xmlns="http://www.w3.org/2000/svg" xmlns:xlink="http://www.w3.org/1999/xlink" x="0px" y="0px"
	 width="595.279px" height="841.891px" viewBox="0 0 595.279 841.891" enable-background="new 0 0 595.279 841.891"
	 xml:space="preserve">
<path fill="#A2A5A8" d="M268.125,261.621L16.007,514.906C6.669,524.244,2,535.139,2,547.588c0,12.451,4.474,23.15,13.423,32.1
	c8.948,8.947,19.843,13.422,32.682,13.422c12.84,0,23.539-4.668,32.099-14.006l219.437-218.27l219.437,218.27
	c9.338,9.338,20.232,14.006,32.683,14.006c12.449,0,23.149-4.668,32.098-14.006c8.947-9.338,13.423-20.232,13.423-32.682
	c0-12.451-4.668-22.955-14.006-31.516L331.155,261.621c-8.56-8.56-19.453-12.84-32.682-12.84c-5.447,0-11.089,1.168-16.925,3.502
	C275.712,254.618,271.238,257.73,268.125,261.621z"/>
</svg>
