<?xml version="1.0" encoding="utf-8"?>
<!-- Generator: Adobe Illustrator 21.0.2, SVG Export Plug-In . SVG Version: 6.00 Build 0)  -->
<svg version="1.1" id="Layer_1" xmlns="http://www.w3.org/2000/svg" xmlns:xlink="http://www.w3.org/1999/xlink" x="0px" y="0px"
	 viewBox="0 0 365.8 131.7" style="enable-background:new 0 0 365.8 131.7;" xml:space="preserve">
<style type="text/css">
	.st0{fill:url(#SVGID_1_);}
	.st1{fill:url(#SVGID_2_);}
	.st2{fill:url(#SVGID_3_);}
	.st3{fill:#20324B;}
</style>
<linearGradient id="SVGID_1_" gradientUnits="userSpaceOnUse" x1="94.7225" y1="79.9258" x2="130.9988" y2="123.1581">
	<stop  offset="0" style="stop-color:#EC1C5B"/>
	<stop  offset="1" style="stop-color:#EA3F96"/>
</linearGradient>
<path class="st0" d="M105.2,101.5c0-4.2,3.4-7.6,7.6-7.6c4.2,0,7.6,3.4,7.6,7.6c0,4.2-3.4,7.6-7.6,7.6
	C108.7,109.2,105.2,105.7,105.2,101.5 M84.6,101.5c0,15.6,12.6,28.2,28.2,28.2c15.6,0,28.2-12.6,28.2-28.2
	c0-15.6-12.6-28.2-28.2-28.2C97.3,73.3,84.6,86,84.6,101.5"/>
<linearGradient id="SVGID_2_" gradientUnits="userSpaceOnUse" x1="14.2402" y1="79.9258" x2="50.5163" y2="123.158">
	<stop  offset="0" style="stop-color:#EC1C5B"/>
	<stop  offset="1" style="stop-color:#EA3F96"/>
</linearGradient>
<path class="st1" d="M24.8,101.5c0-4.2,3.4-7.6,7.6-7.6c4.2,0,7.6,3.4,7.6,7.6c0,4.2-3.4,7.6-7.6,7.6
	C28.2,109.2,24.8,105.7,24.8,101.5 M4.2,101.5c0,15.6,12.6,28.2,28.2,28.2s28.2-12.6,28.2-28.2C60.6,86,48,73.3,32.4,73.3
	S4.2,86,4.2,101.5"/>
<linearGradient id="SVGID_3_" gradientUnits="userSpaceOnUse" x1="53.9387" y1="10.2945" x2="90.2148" y2="53.5266">
	<stop  offset="0" style="stop-color:#EC1C5B"/>
	<stop  offset="1" style="stop-color:#EA3F96"/>
</linearGradient>
<path class="st2" d="M72.1,3.7c-15.6,0-28.2,12.6-28.2,28.2c0,15.6,12.6,28.2,28.2,28.2c15.6,0,28.2-12.6,28.2-28.2
	C100.3,16.3,87.7,3.7,72.1,3.7z M72.1,39.5c-4.2,0-7.6-3.4-7.6-7.6c0-4.2,3.4-7.6,7.6-7.6c4.2,0,7.6,3.4,7.6,7.6
	C79.7,36.1,76.3,39.5,72.1,39.5z"/>
<g>
	<path class="st3" d="M238.7,92.3c0-20.4-14.7-35.1-33.4-35.1c-9.5,0-16.2,3.8-20.9,9.7V25.3h-14.6v100.4h14.6v-7.9
		c4.7,5.9,11.4,9.7,20.9,9.7C224,127.4,238.7,112.7,238.7,92.3 M223.7,92.3c0,11.7-7.6,21.4-20.1,21.4c-12,0-20.1-9.2-20.1-21.4
		c0-12.2,8.2-21.4,20.1-21.4C216.1,70.9,223.7,80.6,223.7,92.3"/>
	<path class="st3" d="M291,72.1V58.9h-25.6V38.7h-14.6v20.2v13.2v29.3c0,17.8,8.9,25.9,24,25.9c8.4,0,15.1-3,20.5-6.6l-5.8-11.6
		c-4,2.5-8.9,4.5-13.5,4.5c-5.9,0-10.6-3.6-10.6-12.5V72.1H291z"/>
	<path class="st3" d="M359.3,62.1c-6.5-3.1-14.5-4.9-23.2-4.9c-17,0-27.6,8.2-27.6,21.4c0,10.8,7.8,17.6,22.7,19.6l7,0.9
		c8,1.1,11.6,3.6,11.6,7.4c0,5-5.2,8.2-15.2,8.2c-10.8,0-17.3-3.1-22-6.8l-6.8,10.9c9.7,7.3,21.8,8.6,28.6,8.6
		c19.2,0,30.4-9,30.4-21.8c0-11.4-8.6-17.6-23.2-19.7l-6.9-1c-6.1-0.9-11-2.2-11-6.9c0-4.7,4.6-7.9,12.6-7.9
		c6.8,0,13.4,2.2,17.9,4.3L359.3,62.1z"/>
</g>
</svg>

